<svg width="10" height="16" viewBox="0 0 10 16" fill="none" xmlns="http://www.w3.org/2000/svg">
<path d="M8.84458 15.5179L9.42715 14.9354C9.67431 14.6882 9.79788 14.3837 9.79788 14.0218C9.79788 13.6599 9.67431 13.3553 9.42715 13.1082L5.19023 8.87127C4.92542 8.60646 4.79302 8.29752 4.79302 7.94444C4.79302 7.59136 4.92542 7.28242 5.19023 7.01762L9.42715 2.78069C9.67431 2.53354 9.79788 2.22901 9.79788 1.86711C9.79788 1.5052 9.67431 1.20067 9.42715 0.95352L8.84458 0.370943C8.59742 0.123789 8.29289 0.000212669 7.93099 0.000212669C7.56909 0.000212669 7.26456 0.123789 7.0174 0.370943L0.370731 7.01762C0.123577 7.30008 0 7.61785 0 7.97092C0 8.324 0.123577 8.62411 0.370731 8.87127L7.0174 15.5179C7.26456 15.7651 7.56909 15.8887 7.93099 15.8887C8.29289 15.8887 8.59742 15.7651 8.84458 15.5179Z" fill="#CCCCCC"/>
</svg>
